<svg width="77" height="100" viewBox="0 0 77 100" fill="none" xmlns="http://www.w3.org/2000/svg">
<path d="M38.3755 0V8.69565C54.737 8.69565 68.0494 22.0043 68.0494 38.3696C68.0494 54.7311 54.737 68.0435 38.3755 68.0435V100L68.4866 62.1426C73.8927 55.3052 76.7511 47.0883 76.7511 38.3754C76.7509 17.2157 59.5353 0 38.3755 0Z" fill="#0BCAD4"/>
<path d="M8.70152 38.3696C8.70152 22.0043 22.0139 8.69565 38.3754 8.69565V0C17.2157 0 0 17.2156 0 38.3754C0 47.0883 2.85826 55.3052 8.27261 62.1509L38.3754 100V68.0435C22.0139 68.0435 8.70152 54.7311 8.70152 38.3696Z" fill="#0BCAD4"/>
<path d="M45.4318 17.3913V31.3133H59.3537V45.4259H45.4318V59.3479H38.3755V68.0435C54.737 68.0435 68.0494 54.7311 68.0494 38.3696C68.0494 22.0044 54.737 8.69568 38.3755 8.69568V17.3913H45.4318Z" fill="#FFE292"/>
<path d="M8.70117 38.3696C8.70117 54.7311 22.0136 68.0435 38.3751 68.0435V59.3479H31.3188V45.4259H17.3968V31.3133H31.3188V17.3913H38.3751V8.69568C22.0136 8.69568 8.70117 22.0044 8.70117 38.3696Z" fill="white"/>
<path d="M45.4318 45.4259H59.3537V31.3133H45.4318V17.3914H38.3755V59.3479H45.4318V45.4259Z" fill="#0B389C"/>
<path d="M31.3192 17.3914V31.3133H17.3972V45.4259H31.3192V59.3479H38.3755V17.3914H31.3192Z" fill="#4370D9"/>
</svg>
